#!OML:ASF I:\Actors\actors\Patient Classification 2\Patient 1\Session 1\actor1.ASF
:FULLY-SPECIFIED
:DEGREES
207
root -0.604116 18.6592 5.6301 -1.45052 -0.417528 -4.67425
lowerback 2.70968 2.2646 1.97344
upperback -0.262002 3.08638 0.104047
thorax -1.68767 1.52341 -1.12214
lowerneck -15.6487 2.80669 4.79069
upperneck 34.8498 3.93581 -3.1688
head 14.8745 1.90623 -1.47576
rclavicle -1.10574e-014 3.97569e-015
rhumerus -25.9005 50.7664 -91.4446
rradius 104.815
rwrist 22.4689
rhand -22.6151 -40.2586
rfingers 7.12502
rthumb 3.8148 -70.2042
lclavicle -1.10574e-014 3.97569e-015
lhumerus -29.1378 -19.345 103.145
lradius 103.956
lwrist 79.5059
lhand -14.6335 -23.3489
lfingers 7.12502
lthumb 11.5182 6.31462
rfemur 0 0 0
rtibia 0
rfoot 0 0
rtoes 0
lfemur -3.62234 -5.65323 -9.97296
ltibia 24.2452
lfoot -22.8317 11.0766
ltoes -55.6159
208
root -0.604604 18.6576 5.6384 -1.47007 -0.401506 -4.66737
lowerback 2.69117 2.27635 1.97484
upperback -0.269842 3.10144 0.0855952
thorax -1.68376 1.53083 -1.14172
lowerneck -15.6135 2.80438 4.79537
upperneck 34.8358 3.91628 -3.12483
head 14.8578 1.9052 -1.46177
rclavicle -1.65178e-014 -4.77083e-015
rhumerus -25.79 50.4335 -91.3398
rradius 105.014
rwrist 22.1595
rhand -22.4665 -40.2839
rfingers 7.12502
rthumb 3.95831 -70.2269
lclavicle -1.65178e-014 -4.77083e-015
lhumerus -29.3566 -19.398 103.056
lradius 104.047
lwrist 79.5542
lhand -14.5998 -23.3716
lfingers 7.12502
lthumb 11.5507 6.29011
rfemur 0 0 0
rtibia 0
rfoot 0 0
rtoes 0
lfemur -3.59377 -5.68388 -9.9866
ltibia 24.2844
lfoot -22.8953 11.0578
ltoes -55.5955
209
root -0.605059 18.6562 5.64462 -1.47613 -0.381737 -4.74977
lowerback 2.71562 2.28332 2.13103
upperback -0.301874 3.11603 0.0359445
thorax -1.71887 1.53578 -1.28202
lowerneck -15.5298 2.80283 4.86803
upperneck 34.7409 3.89279 -3.1289
head 14.7948 1.90497 -1.48005
rclavicle 1.99779e-014 7.95139e-016
rhumerus -25.6517 49.9971 -91.2599
rradius 105.166
rwrist 22.1631
rhand -22.4695 -40.1308
rfingers 7.12502
rthumb 3.95536 -70.0738
lclavicle 1.99779e-014 7.95139e-016
lhumerus -29.5062 -19.5235 102.942
lradius 104.08
lwrist 79.4968
lhand -14.5617 -23.3306
lfingers 7.12502
lthumb 11.5875 6.32904
rfemur 0 0 0
rtibia 0
rfoot 0 0
rtoes 0
lfemur -3.5622 -5.70557 -9.89571
ltibia 24.2684
lfoot -22.916 11.0577
ltoes -55.6344
210
root -0.629536 18.6621 5.66061 -1.2637 -0.454677 -4.26693
lowerback 2.31568 2.3431 1.26874
upperback -0.338423 3.15972 -0.0730461
thorax -1.57066 1.56652 -0.897458
lowerneck -15.4453 2.79607 4.93646
upperneck 34.6429 3.87246 -3.15947
head 14.7311 1.90166 -1.50802
rclavicle -8.7838e-015 7.95139e-016
rhumerus -25.4905 49.6028 -91.1185
rradius 105.327
rwrist 22.055
rhand -22.662 -40.0112
rfingers 7.12502
rthumb 3.7695 -69.9576
lclavicle -8.7838e-015 7.95139e-016
lhumerus -29.6211 -19.6793 102.827
lradius 104.097
lwrist 79.354
lhand -14.3705 -23.3506
lfingers 7.12502
lthumb 11.7719 6.29855
rfemur 0 0 0
rtibia 0
rfoot 0 0
rtoes 0
lfemur -3.70253 -5.67696 -10.3425
ltibia 24.143
lfoot -22.878 11.159
ltoes -55.6277
211
root -0.637709 18.6632 5.67151 -1.21544 -0.478363 -4.11212
lowerback 2.15452 2.3722 0.976965
upperback -0.333113 3.18783 -0.104277
thorax -1.48828 1.58365 -0.760208
lowerneck -15.4305 2.76397 4.92606
upperneck 34.6221 3.83086 -3.16796
head 14.7155 1.88144 -1.5168
rclavicle -4.96589e-014 7.95139e-015
rhumerus -25.3432 49.3065 -90.8975
rradius 105.494
rwrist 21.6659
rhand -22.7132 -39.9412
rfingers 7.12502
rthumb 3.72005 -69.8885
lclavicle -4.96589e-014 7.95139e-015
lhumerus -29.7428 -19.8268 102.791
lradius 104.153
lwrist 79.2751
lhand -14.2238 -23.3976
lfingers 7.12502
lthumb 11.9133 6.24346
rfemur 0 0 0
rtibia 0
rfoot 0 0
rtoes 0
lfemur -3.67031 -5.71287 -10.4924
ltibia 24.0318
lfoot -22.8588 11.1998
ltoes -55.5295
212
root -0.638 18.6625 5.68015 -1.21846 -0.48087 -4.12883
lowerback 2.1048 2.38983 0.968596
upperback -0.329898 3.21086 -0.0845084
thorax -1.45827 1.59553 -0.733649
lowerneck -15.4168 2.71771 4.83308
upperneck 34.6224 3.78487 -3.14729
head 14.7065 1.85263 -1.49995
rclavicle -3.21783e-015 -1.51076e-014
rhumerus -25.1777 49.0721 -90.6311
rradius 105.582
rwrist 21.2555
rhand -22.5204 -39.7911
rfingers 7.12502
rthumb 3.90626 -69.7351
lclavicle -3.21783e-015 -1.51076e-014
lhumerus -29.814 -19.8854 102.844
lradius 104.191
lwrist 79.2475
lhand -14.1874 -23.3474
lfingers 7.12502
lthumb 11.9484 6.29159
rfemur 0 0 0
rtibia 0
rfoot 0 0
rtoes 0
lfemur -3.57368 -5.76192 -10.4831
ltibia 23.9172
lfoot -22.8616 11.2224
ltoes -55.4665
213
root -0.637662 18.6623 5.68835 -1.20439 -0.464038 -4.12412
lowerback 2.02363 2.39024 0.915951
upperback -0.32909 3.20968 -0.0521126
thorax -1.41672 1.59579 -0.667384
lowerneck -15.4052 2.67479 4.66216
upperneck 34.6501 3.74194 -3.05096
head 14.7072 1.82528 -1.43781
rclavicle 1.58407e-014 4.77083e-015
rhumerus -24.9926 48.9585 -90.3374
rradius 105.571
rwrist 20.9237
rhand -22.415 -39.7527
rfingers 7.12502
rthumb 4.00801 -69.6948
lclavicle 1.58407e-014 4.77083e-015
lhumerus -29.7883 -19.8263 102.945
lradius 104.178
lwrist 79.1821
lhand -14.1933 -23.2947
lfingers 7.12502
lthumb 11.9427 6.34464
rfemur 0 0 0
rtibia 0
rfoot 0 0
rtoes 0
lfemur -3.5604 -5.7555 -10.4915
ltibia 23.9172
lfoot -22.8917 11.2101
ltoes -55.518
214
root -0.637482 18.6624 5.69468 -1.18913 -0.412154 -4.12259
lowerback 1.96975 2.37954 0.836955
upperback -0.345204 3.19355 -0.0128559
thorax -1.40987 1.58854 -0.580797
lowerneck -15.4066 2.6425 4.54902
upperneck 34.719 3.70984 -2.98849
head 14.7332 1.80556 -1.39826
rclavicle -3.85766e-015 -3.97569e-015
rhumerus -24.8913 48.987 -90.0849
rradius 105.467
rwrist 20.6292
rhand -22.4513 -39.6803
rfingers 7.12502
rthumb 3.97293 -69.623
lclavicle -3.85766e-015 -3.97569e-015
lhumerus -29.7808 -19.7565 103.074
lradius 104.178
lwrist 79.0818
lhand -14.2296 -23.3187
lfingers 7.12502
lthumb 11.9077 6.32269
rfemur 0 0 0
rtibia 0
rfoot 0 0
rtoes 0
lfemur -3.62288 -5.8283 -10.5021
ltibia 24.0372
lfoot -22.9902 11.2167
ltoes -55.5637
215
root -0.630248 18.6607 5.69714 -1.24097 -0.323688 -4.29261
lowerback 2.32748 2.39884 1.24646
upperback -0.540945 3.23487 -0.0901888
thorax -1.7835 1.60148 -0.911548
lowerneck -15.2761 2.56925 4.58763
upperneck 34.8756 3.56623 -2.8921
head 14.7676 1.76542 -1.39239
rclavicle -1.16786e-015 1.03368e-014
rhumerus -25.3065 48.9211 -90.342
rradius 105.309
rwrist 20.3823
rhand -22.3441 -39.6748
rfingers 7.12502
rthumb 4.07646 -69.6155
lclavicle -1.16786e-015 1.03368e-014
lhumerus -30.1239 -19.9096 103.205
lradius 104.238
lwrist 79.0163
lhand -14.2841 -23.3209
lfingers 7.12502
lthumb 11.8551 6.32354
rfemur 0 0 0
rtibia 0
rfoot 0 0
rtoes 0
lfemur -3.58483 -5.90384 -10.3447
ltibia 24.083
lfoot -23.035 11.2244
ltoes -55.6476
216
root -0.607887 18.6547 5.69299 -1.42813 -0.18298 -4.80008
lowerback 2.36526 2.29256 2.04308
upperback -0.33187 3.11738 0.0295248
thorax -1.55751 1.53906 -1.22438
lowerneck -15.4098 2.59311 4.59611
upperneck 34.7902 3.61507 -2.9673
head 14.763 1.77452 -1.41478
rclavicle 4.68262e-014 -7.95139e-016
rhumerus -24.7512 49.3738 -89.825
rradius 105.038
rwrist 19.9869
rhand -22.0719 -39.7988
rfingers 7.12502
rthumb 4.3393 -69.7343
lclavicle 4.68262e-014 -7.95139e-016
lhumerus -29.7603 -19.8502 103.172
lradius 104.243
lwrist 78.8996
lhand -14.2717 -23.2755
lfingers 7.12502
lthumb 11.8672 6.3682
rfemur 0 0 0
rtibia 0
rfoot 0 0
rtoes 0
lfemur -3.40605 -5.8454 -9.8448
ltibia 24.1081
lfoot -22.9332 11.0756
ltoes -55.7986
217
root -0.632074 18.6616 5.70683 -1.20484 -0.233506 -4.3176
lowerback 2.0077 2.33743 1.165
upperback -0.386822 3.14568 -0.0612581
thorax -1.45424 1.56124 -0.814291
lowerneck -15.3588 2.56374 4.62246
upperneck 34.7812 3.55788 -2.94958
head 14.7442 1.75648 -1.42226
rclavicle -2.54258e-014 -2.38542e-015
rhumerus -24.7736 49.706 -89.8487
rradius 104.73
rwrist 19.6541
rhand -21.7337 -39.6637
rfingers 7.12502
rthumb 4.66594 -69.5923
lclavicle -2.54258e-014 -2.38542e-015
lhumerus -29.7546 -19.937 103.176
lradius 104.309
lwrist 78.7229
lhand -14.2207 -23.2459
lfingers 7.12502
lthumb 11.9163 6.39497
rfemur 0 0 0
rtibia 0
rfoot 0 0
rtoes 0
lfemur -3.61809 -5.82146 -10.2919
ltibia 24.0871
lfoot -22.8726 11.1351
ltoes -55.7777
218
root -0.640763 18.664 5.71504 -1.11096 -0.237979 -4.11681
lowerback 1.84823 2.35544 0.842409
upperback -0.401704 3.15924 -0.116192
thorax -1.39409 1.57088 -0.684274
lowerneck -15.3444 2.53145 4.61455
upperneck 34.7639 3.51213 -2.95001
head 14.7301 1.73584 -1.42887
rclavicle 3.26131e-014 -3.97569e-015
rhumerus -24.7077 50.0724 -89.756
rradius 104.505
rwrist 19.3393
rhand -21.5203 -39.5519
rfingers 7.12502
rthumb 4.87195 -69.4759
lclavicle 3.26131e-014 -3.97569e-015
lhumerus -29.6754 -20.0269 103.168
lradius 104.383
lwrist 78.7831
lhand -14.3691 -23.2499
lfingers 7.12502
lthumb 11.7732 6.3992
rfemur 0 0 0
rtibia 0
rfoot 0 0
rtoes 0
lfemur -3.70808 -5.78932 -10.4756
ltibia 24.0827
lfoot -22.8684 11.0883
ltoes -55.6972
219
root -0.641312 18.6631 5.72063 -1.11101 -0.253149 -4.11292
lowerback 1.80045 2.37665 0.841668
upperback -0.369682 3.18686 -0.119551
thorax -1.33388 1.58515 -0.684911
lowerneck -15.4215 2.47774 4.49628
upperneck 34.7729 3.44618 -2.89599
head 14.7442 1.69862 -1.39644
rclavicle -3.95706e-015 0
rhumerus -24.5619 50.2666 -89.5349
rradius 104.474
rwrist 19.3423
rhand -21.4381 -39.6572
rfingers 7.12502
rthumb 4.95139 -69.5793
lclavicle -3.95706e-015 0
lhumerus -29.5066 -20.0391 103.157
lradius 104.353
lwrist 79.0116
lhand -14.582 -23.2641
lfingers 7.12502
lthumb 11.5678 6.3967
rfemur 0 0 0
rtibia 0
rfoot 0 0
rtoes 0
lfemur -3.69398 -5.74901 -10.4741
ltibia 24.0926
lfoot -22.9031 11.0441
ltoes -55.6864
220
root -0.632355 18.6604 5.7229 -1.20017 -0.217786 -4.30367
lowerback 1.89122 2.36782 1.17985
upperback -0.323315 3.18427 -0.0811548
thorax -1.32111 1.58163 -0.836739
lowerneck -15.4798 2.42704 4.34426
upperneck 34.7836 3.38895 -2.82078
head 14.7541 1.6638 -1.34797
rclavicle -4.75282e-014 -7.95139e-015
rhumerus -24.4094 50.1994 -89.3282
rradius 104.6
rwrist 19.4932
rhand -21.2797 -39.727
rfingers 7.12502
rthumb 5.10426 -69.6455
lclavicle -4.75282e-014 -7.95139e-015
lhumerus -29.3217 -19.9123 103.172
lradius 104.194
lwrist 78.9696
lhand -14.5974 -23.2646
lfingers 7.12502
lthumb 11.553 6.39693
rfemur 0 0 0
rtibia 0
rfoot 0 0
rtoes 0
lfemur -3.63326 -5.75788 -10.2995
ltibia 24.1996
lfoot -22.9796 11.0101
ltoes -55.7423
221
root -0.60666 18.6538 5.71811 -1.42274 -0.0890168 -4.79381
lowerback 2.22267 2.29299 2.11552
upperback -0.263511 3.11485 -0.0235684
thorax -1.40077 1.53941 -1.31044
lowerneck -15.449 2.43092 4.35225
upperneck 34.7393 3.40441 -2.85545
head 14.728 1.66671 -1.36094
rclavicle -6.90156e-014 -1.59028e-015
rhumerus -24.1793 50.0114 -89.1644
rradius 104.796
rwrist 19.2078
rhand -21.219 -39.7709
rfingers 7.12502
rthumb 5.16289 -69.688
lclavicle -6.90156e-014 -1.59028e-015
lhumerus -29.1807 -19.7626 103.158
lradius 104.08
lwrist 78.7909
lhand -14.5388 -23.3365
lfingers 7.12502
lthumb 11.6096 6.3219
rfemur 0 0 0
rtibia 0
rfoot 0 0
rtoes 0
lfemur -3.47519 -5.77943 -9.84789
ltibia 24.361
lfoot -23.0146 10.8986
ltoes -55.8483
